# xmcd CD database file generated by OrangeCD 6.3
#
# Track frame offsets:
#	150
#	24465
#	36910
#	59930
#	79003
#	98245
#	114723
#	139328
#	152570
#	167828
#	187676
#	198783
#	218636
#	227093
#	241693
#	267840
#	279238
#	310275
#
# Disc length: 4356 seconds
#
# Revision: 1
# Processed by: cddbd v1.5.2PL0 Copyright (c) Steve Scherf et al.
# Submitted via: OrangeCD 6.3
#
DISCID=f2110212
DTITLE=Getz, Stan - Brazillian Jazz
DYEAR=1900
DGENRE=Jazz
TTITLE0=Girl from Ipanema
TTITLE1=Doralice
TTITLE2=Para Machuchar Meu Coraco
TTITLE3=Desafinado
TTITLE4=Corcovado
TTITLE5=I only Dance Samba
TTITLE6=O Grande Amor
TTITLE7=Dreamer
TTITLE8=How Sensitive
TTITLE9=It might as well be Spring
TTITLE10=Me and you
TTITLE11=Only trust your Heart
TTITLE12=Telephone Song
TTITLE13=One Note Samba
TTITLE14=Morning of the Carnival
TTITLE15=The Duck
TTITLE16=O Morro Nao Tem Vez
TTITLE17=Saudade Vem Correndo
EXTD=
EXTT0=
EXTT1=
EXTT2=
EXTT3=
EXTT4=
EXTT5=
EXTT6=
EXTT7=
EXTT8=
EXTT9=
EXTT10=
EXTT11=
EXTT12=
EXTT13=
EXTT14=
EXTT15=
EXTT16=
EXTT17=
PLAYORDER=
